<svg width="138" height="24" viewBox="0 0 138 24" fill="none" xmlns="http://www.w3.org/2000/svg">
<path d="M29.2524 14.3094V11.2365H32.1598C33.1211 11.2365 33.8381 11.0474 34.3109 10.6692C34.7836 10.2752 35.02 9.62915 35.02 8.73091C35.02 7.87995 34.7994 7.24961 34.3581 6.83989C33.9327 6.41441 33.2787 6.20167 32.3962 6.20167H29.2524V3.12876H32.6089C33.5072 3.12876 34.3424 3.23907 35.1145 3.45969C35.8867 3.66455 36.5564 3.99548 37.1237 4.45248C37.7068 4.90947 38.1559 5.48466 38.4711 6.17803C38.802 6.87141 38.9675 7.70661 38.9675 8.68364C38.9675 9.92856 38.6838 10.9686 38.1165 11.8038C37.565 12.639 36.7613 13.2694 35.7055 13.6948C34.6497 14.1046 33.3575 14.3094 31.8289 14.3094H29.2524ZM26.3922 18.7297V3.12876H30.2215V18.7297H26.3922Z" fill="#2A7EC9"/>
<path d="M45.9194 19.0606C44.7375 19.0606 43.7447 18.8952 42.941 18.5642C42.1531 18.2175 41.5149 17.7527 41.0264 17.1696C40.5379 16.5708 40.1833 15.8932 39.9627 15.1368C39.7578 14.3803 39.6554 13.5845 39.6554 12.7493C39.6554 11.8511 39.7657 10.9923 39.9863 10.1728C40.2227 9.35338 40.5773 8.62848 41.05 7.99814C41.5385 7.35204 42.161 6.84777 42.9174 6.48532C43.6896 6.10712 44.6114 5.91802 45.683 5.91802C46.7546 5.91802 47.6686 6.10712 48.425 6.48532C49.1972 6.84777 49.8118 7.35992 50.2688 8.02178C50.7258 8.68364 51.0173 9.44793 51.1434 10.3146C51.2852 11.1814 51.2694 12.119 51.0961 13.1275L42.0428 13.2694V11.1892L48.165 11.0711L47.6686 12.2766C47.7632 11.5517 47.7474 10.945 47.6213 10.4565C47.511 9.9522 47.2983 9.57399 46.9831 9.32186C46.6679 9.05396 46.2346 8.92002 45.683 8.92002C45.1 8.92002 44.6351 9.06972 44.2884 9.36913C43.9417 9.66855 43.6975 10.094 43.5556 10.6456C43.4138 11.1814 43.3429 11.8196 43.3429 12.5602C43.3429 13.8367 43.5556 14.7664 43.9811 15.3495C44.4066 15.9326 45.0606 16.2241 45.943 16.2241C46.3212 16.2241 46.6364 16.1768 46.8886 16.0823C47.1407 15.9877 47.3456 15.8538 47.5031 15.6804C47.6607 15.4913 47.771 15.2707 47.8341 15.0186C47.8971 14.7507 47.9207 14.4513 47.905 14.1203L51.4034 14.3094C51.4506 14.8295 51.3955 15.3653 51.2379 15.9168C51.0961 16.4683 50.8203 16.9805 50.4106 17.4533C50.0009 17.926 49.4257 18.3121 48.685 18.6115C47.9601 18.9109 47.0383 19.0606 45.9194 19.0606Z" fill="#2A7EC9"/>
<path d="M52.7286 18.7297V6.24895H55.9669V11.3311H56.156C56.2506 10.1019 56.4555 9.09336 56.7706 8.30543C57.0858 7.50175 57.5349 6.90293 58.118 6.50896C58.701 6.115 59.4417 5.91802 60.3399 5.91802C61.6952 5.91802 62.7116 6.36714 63.3892 7.26537C64.0826 8.16361 64.4293 9.50308 64.4293 11.2838V18.7297H60.5999V11.7802C60.5999 10.9292 60.466 10.291 60.1981 9.86553C59.946 9.44005 59.5362 9.22731 58.9689 9.22731C58.4962 9.22731 58.0786 9.39277 57.7161 9.7237C57.3537 10.0546 57.07 10.5904 56.8652 11.3311C56.6603 12.0717 56.5579 13.0645 56.5579 14.3094V18.7297H52.7286Z" fill="#2A7EC9"/>
<path d="M66.0017 18.7297V6.24895H69.2401V11.3311H69.4292C69.5238 10.1019 69.7286 9.09336 70.0438 8.30543C70.359 7.50175 70.8081 6.90293 71.3911 6.50896C71.9742 6.115 72.7149 5.91802 73.6131 5.91802C74.9683 5.91802 75.9848 6.36714 76.6624 7.26537C77.3558 8.16361 77.7024 9.50308 77.7024 11.2838V18.7297H73.8731V11.7802C73.8731 10.9292 73.7392 10.291 73.4713 9.86553C73.2191 9.44005 72.8094 9.22731 72.2421 9.22731C71.7693 9.22731 71.3518 9.39277 70.9893 9.7237C70.6269 10.0546 70.3432 10.5904 70.1384 11.3311C69.9335 12.0717 69.8311 13.0645 69.8311 14.3094V18.7297H66.0017Z" fill="#2A7EC9"/>
<path d="M83.7424 22.4172C83.2697 22.4172 82.7497 22.3778 82.1824 22.299C81.615 22.2202 81.0477 22.0941 80.4804 21.9208C79.9131 21.7475 79.3852 21.5268 78.8967 21.2589L79.7713 17.406C80.3386 17.9418 80.9689 18.32 81.6623 18.5406C82.3715 18.7612 83.0018 18.8715 83.5533 18.8715C84.3255 18.8715 84.9716 18.7218 85.4916 18.4224C86.0274 18.1072 86.4293 17.6581 86.6972 17.0751C86.9651 16.4762 87.099 15.7513 87.099 14.9004V12.7257H86.8863C86.8548 13.8288 86.6735 14.7349 86.3426 15.444C86.0274 16.1374 85.5941 16.6496 85.0425 16.9805C84.491 17.3114 83.8528 17.4769 83.1279 17.4769C82.2296 17.4769 81.4811 17.2484 80.8823 16.7914C80.2992 16.3344 79.858 15.6489 79.5586 14.7349C79.2591 13.8209 79.1094 12.6784 79.1094 11.3074V6.24895H82.9151V10.3146C82.9151 11.6541 83.0569 12.6311 83.3406 13.2457C83.6243 13.8603 84.0734 14.1676 84.688 14.1676C85.0031 14.1676 85.2789 14.0888 85.5153 13.9312C85.7674 13.7579 85.9723 13.5057 86.1299 13.1748C86.2874 12.8281 86.4056 12.4026 86.4844 11.8984C86.5632 11.3783 86.6026 10.7795 86.6026 10.1019V6.24895H90.4083V15.0422C90.4083 15.8932 90.3216 16.6968 90.1483 17.4533C89.9749 18.1939 89.7149 18.8636 89.3682 19.4625C89.0215 20.077 88.5803 20.605 88.0445 21.0462C87.5245 21.4874 86.902 21.8262 86.1771 22.0626C85.468 22.299 84.6564 22.4172 83.7424 22.4172Z" fill="#2A7EC9"/>
<path d="M94.9719 14.3094V11.2365H97.8793C98.8406 11.2365 99.5576 11.0474 100.03 10.6692C100.503 10.2752 100.739 9.62915 100.739 8.73091C100.739 7.87995 100.519 7.24961 100.078 6.83989C99.6521 6.41441 98.9982 6.20167 98.1157 6.20167H94.9719V3.12876H98.3284C99.2267 3.12876 100.062 3.23907 100.834 3.45969C101.606 3.66455 102.276 3.99548 102.843 4.45248C103.426 4.90947 103.875 5.48466 104.191 6.17803C104.522 6.87141 104.687 7.70661 104.687 8.68364C104.687 9.92856 104.403 10.9686 103.836 11.8038C103.284 12.639 102.481 13.2694 101.425 13.6948C100.369 14.1046 99.077 14.3094 97.5484 14.3094H94.9719ZM92.1117 18.7297V3.12876H95.941V18.7297H92.1117Z" fill="#2A7EC9"/>
<path d="M105.867 18.7297V6.24895H109.697V18.7297H105.867ZM107.758 5.35071C107.034 5.35071 106.474 5.201 106.08 4.90159C105.702 4.58642 105.513 4.1373 105.513 3.55424C105.513 2.95542 105.702 2.5063 106.08 2.20688C106.474 1.89171 107.034 1.73413 107.758 1.73413C108.499 1.73413 109.059 1.89171 109.437 2.20688C109.831 2.52206 110.028 2.97117 110.028 3.55424C110.028 4.12155 109.831 4.56279 109.437 4.87795C109.059 5.19313 108.499 5.35071 107.758 5.35071Z" fill="#2A7EC9"/>
<path d="M111.408 18.7297V2.18325H115.237V18.7297H111.408Z" fill="#2A7EC9"/>
<path d="M122.763 19.0606C121.565 19.0606 120.501 18.8242 119.571 18.3515C118.642 17.863 117.917 17.1381 117.397 16.1768C116.877 15.1998 116.617 13.9785 116.617 12.513C116.617 10.9844 116.885 9.73946 117.42 8.77819C117.972 7.80116 118.713 7.08415 119.642 6.62715C120.588 6.1544 121.652 5.91802 122.833 5.91802C124.063 5.91802 125.134 6.16227 126.048 6.65079C126.978 7.12354 127.695 7.84844 128.199 8.82547C128.719 9.78674 128.979 11.008 128.979 12.4893C128.979 14.0179 128.703 15.2707 128.152 16.2477C127.616 17.209 126.875 17.9181 125.93 18.3751C125 18.8321 123.944 19.0606 122.763 19.0606ZM122.857 16.2477C123.346 16.2477 123.755 16.1138 124.086 15.8459C124.417 15.5622 124.669 15.1525 124.843 14.6167C125.016 14.0809 125.103 13.4427 125.103 12.7021C125.103 11.8826 125.008 11.1971 124.819 10.6456C124.63 10.0783 124.354 9.64491 123.992 9.3455C123.645 9.04608 123.22 8.89638 122.715 8.89638C122.242 8.89638 121.841 9.03821 121.51 9.32186C121.179 9.58975 120.927 9.9916 120.753 10.5274C120.58 11.0632 120.493 11.7093 120.493 12.4657C120.493 13.6633 120.698 14.5931 121.108 15.2549C121.533 15.9168 122.116 16.2477 122.857 16.2477Z" fill="#2A7EC9"/>
<path d="M135.208 19.0133C133.743 19.0133 132.648 18.643 131.923 17.9024C131.214 17.146 130.859 15.9798 130.859 14.404V9.22731H129.488V6.81625H129.559C130.536 6.69019 131.229 6.36714 131.639 5.8471C132.049 5.31131 132.301 4.50763 132.395 3.43605V3.38877H134.641V6.24895H137.501V9.32186H134.641V14.0494C134.641 14.6482 134.783 15.0737 135.067 15.3259C135.366 15.578 135.728 15.7041 136.154 15.7041C136.374 15.7041 136.603 15.6725 136.839 15.6095C137.076 15.5465 137.296 15.4598 137.501 15.3495V18.6824C137.013 18.8242 136.579 18.9109 136.201 18.9424C135.823 18.9897 135.492 19.0133 135.208 19.0133Z" fill="#2A7EC9"/>
<path d="M18.3404 0.105998C18.7536 -0.212933 19.3139 0.245814 19.0828 0.713868L11.1119 16.8574C11.0124 17.0589 10.7891 17.1675 10.5692 17.1213L0.391603 14.9845C-0.019678 14.8981 -0.140775 14.3694 0.191913 14.1127L18.3404 0.105998Z" fill="#2A7EC9"/>
<path d="M18.5989 6.31329C18.5166 5.83984 17.8743 5.75255 17.6687 6.18686L12.4549 17.196C12.3545 17.408 12.4176 17.6615 12.6058 17.8017L20.7936 23.9009C21.1506 24.1669 21.6492 23.8602 21.573 23.4217L18.5989 6.31329Z" fill="#98B0FF"/>
</svg>
