<svg width="48" height="48" viewBox="0 0 48 48" fill="none" xmlns="http://www.w3.org/2000/svg">
<rect x="0.5" y="0.5" width="47" height="47" rx="23.5" stroke="#2A7EC9"/>
<path d="M30.645 25.9508L24.8192 31.6779C24.6008 31.8926 24.3095 32 24.0182 32C23.6905 32 23.3992 31.8926 23.1808 31.6779L17.355 25.9508C16.8817 25.5213 16.8817 24.7696 17.355 24.34C17.7919 23.8747 18.5566 23.8747 18.9935 24.34L22.8531 28.0984V17.1096C22.8531 16.5011 23.3628 16 23.9818 16C24.5644 16 25.1834 16.5011 25.1834 17.1096V28.0984L29.0065 24.34C29.4434 23.8747 30.2081 23.8747 30.645 24.34C31.1183 24.7696 31.1183 25.5213 30.645 25.9508Z" fill="#2A7EC9"/>
</svg>
