<svg width="16" height="16" viewBox="0 0 16 16" fill="none" xmlns="http://www.w3.org/2000/svg">
<g clip-path="url(#clip0_69_1127)">
<path d="M3.3335 6V4.53333C3.3335 4.24 3.5735 4 3.86683 4H14.8002C15.0935 4 15.3335 4.24 15.3335 4.53333V10.1333C15.3335 10.4267 15.0935 10.6667 14.8002 10.6667H13.3335M1.86683 6H12.8002C12.9416 6 13.0773 6.05619 13.1773 6.15621C13.2773 6.25623 13.3335 6.39188 13.3335 6.53333V12.1333C13.3335 12.2748 13.2773 12.4104 13.1773 12.5105C13.0773 12.6105 12.9416 12.6667 12.8002 12.6667H1.86683C1.72538 12.6667 1.58973 12.6105 1.48971 12.5105C1.38969 12.4104 1.3335 12.2748 1.3335 12.1333V6.53333C1.3335 6.39188 1.38969 6.25623 1.48971 6.15621C1.58973 6.05619 1.72538 6 1.86683 6ZM8.00016 9.33333C8.00016 9.51014 7.92992 9.67971 7.8049 9.80474C7.67988 9.92976 7.51031 10 7.3335 10C7.15669 10 6.98712 9.92976 6.86209 9.80474C6.73707 9.67971 6.66683 9.51014 6.66683 9.33333C6.66683 9.15652 6.73707 8.98695 6.86209 8.86193C6.98712 8.7369 7.15669 8.66667 7.3335 8.66667C7.51031 8.66667 7.67988 8.7369 7.8049 8.86193C7.92992 8.98695 8.00016 9.15652 8.00016 9.33333Z" stroke="#2A7EC9" stroke-width="1.5" stroke-miterlimit="10" stroke-linejoin="round"/>
</g>
<defs>
<clipPath id="clip0_69_1127">
<rect width="16" height="16" fill="white"/>
</clipPath>
</defs>
</svg>
