<svg width="16" height="16" viewBox="0 0 16 16" fill="none" xmlns="http://www.w3.org/2000/svg">
<path d="M13.8088 5.41874L13.6448 5.79607C13.6192 5.85751 13.576 5.91 13.5206 5.94692C13.4652 5.98384 13.4001 6.00354 13.3335 6.00354C13.2669 6.00354 13.2018 5.98384 13.1464 5.94692C13.091 5.91 13.0478 5.85751 13.0222 5.79607L12.8582 5.41874C12.5698 4.75122 12.0417 4.21602 11.3782 3.91874L10.8722 3.69274C10.8108 3.6645 10.7588 3.61925 10.7223 3.56236C10.6859 3.50546 10.6665 3.43931 10.6665 3.37174C10.6665 3.30417 10.6859 3.23801 10.7223 3.18112C10.7588 3.12422 10.8108 3.07897 10.8722 3.05074L11.3502 2.83807C12.0304 2.53232 12.5675 1.97732 12.8508 1.2874L13.0195 0.88007C13.0443 0.816972 13.0875 0.762802 13.1435 0.72462C13.1995 0.686438 13.2657 0.666016 13.3335 0.666016C13.4013 0.666016 13.4675 0.686438 13.5235 0.72462C13.5795 0.762802 13.6227 0.816972 13.6475 0.88007L13.8162 1.28674C14.0992 1.97679 14.636 2.53202 15.3162 2.83807L15.7948 3.0514C15.856 3.07972 15.9078 3.12496 15.9442 3.18179C15.9805 3.23861 15.9998 3.30463 15.9998 3.37207C15.9998 3.43951 15.9805 3.50553 15.9442 3.56235C15.9078 3.61917 15.856 3.66442 15.7948 3.69274L15.2882 3.91807C14.6247 4.21565 14.0969 4.75109 13.8088 5.41874ZM6.66683 2.00007H9.3335V3.3334H6.66683C5.60596 3.3334 4.58855 3.75483 3.8384 4.50498C3.08826 5.25512 2.66683 6.27254 2.66683 7.3334C2.66683 9.74007 4.30816 11.3107 8.00016 12.9867V11.3334H9.3335C10.3944 11.3334 11.4118 10.912 12.1619 10.1618C12.9121 9.41168 13.3335 8.39427 13.3335 7.3334H14.6668C14.6668 8.74789 14.1049 10.1044 13.1047 11.1046C12.1045 12.1048 10.748 12.6667 9.3335 12.6667V15.0001C6.00016 13.6667 1.3335 11.6667 1.3335 7.3334C1.3335 5.91891 1.8954 4.56236 2.89559 3.56217C3.89579 2.56197 5.25234 2.00007 6.66683 2.00007Z" fill="#2A7EC9"/>
</svg>
