<svg width="16" height="16" viewBox="0 0 16 16" fill="none" xmlns="http://www.w3.org/2000/svg">
<path d="M12.9998 7.99967C12.9998 7.84634 12.9931 7.69967 12.9798 7.54634L14.2198 6.60634C14.4864 6.40634 14.5598 6.03301 14.3931 5.73967L13.1464 3.58634C13.0665 3.44513 12.9372 3.33844 12.7834 3.28675C12.6296 3.23507 12.4621 3.24205 12.3131 3.30634L10.8798 3.91301C10.6331 3.73967 10.3731 3.58634 10.0998 3.45967L9.90644 1.91967C9.86644 1.58634 9.57978 1.33301 9.24644 1.33301H6.75978C6.41978 1.33301 6.13311 1.58634 6.09311 1.91967L5.89978 3.45967C5.62644 3.58634 5.36644 3.73967 5.11978 3.91301L3.68644 3.30634C3.37978 3.17301 3.01978 3.29301 2.85311 3.58634L1.60644 5.74634C1.43978 6.03967 1.51311 6.40634 1.77978 6.61301L3.01978 7.55301C2.99198 7.85236 2.99198 8.15365 3.01978 8.45301L1.77978 9.39301C1.51311 9.59301 1.43978 9.96634 1.60644 10.2597L2.85311 12.413C3.01978 12.7063 3.37978 12.8263 3.68644 12.693L5.11978 12.0863C5.36644 12.2597 5.62644 12.413 5.89978 12.5397L6.09311 14.0797C6.13311 14.413 6.41978 14.6663 6.75311 14.6663H9.23978C9.57311 14.6663 9.85978 14.413 9.89978 14.0797L10.0931 12.5397C10.3664 12.413 10.6264 12.2597 10.8731 12.0863L12.3064 12.693C12.6131 12.8263 12.9731 12.7063 13.1398 12.413L14.3864 10.2597C14.5531 9.96634 14.4798 9.59967 14.2131 9.39301L12.9731 8.45301C12.9931 8.29967 12.9998 8.15301 12.9998 7.99967ZM8.02644 10.333C6.73978 10.333 5.69311 9.28634 5.69311 7.99967C5.69311 6.71301 6.73978 5.66634 8.02644 5.66634C9.31311 5.66634 10.3598 6.71301 10.3598 7.99967C10.3598 9.28634 9.31311 10.333 8.02644 10.333Z" fill="#2A7EC9"/>
</svg>
