<svg width="16" height="16" viewBox="0 0 16 16" fill="none" xmlns="http://www.w3.org/2000/svg">
<path d="M13.9998 5.33301C13.0332 5.33301 12.4932 6.29301 12.7132 7.00634L10.3465 9.37967C10.1465 9.31967 9.85317 9.31967 9.65317 9.37967L7.95317 7.67967C8.17984 6.96634 7.63984 5.99967 6.6665 5.99967C5.69984 5.99967 5.15317 6.95967 5.37984 7.67967L2.33984 10.713C1.6265 10.493 0.666504 11.033 0.666504 11.9997C0.666504 12.733 1.2665 13.333 1.99984 13.333C2.9665 13.333 3.5065 12.373 3.2865 11.6597L6.31984 8.61967C6.51984 8.67967 6.81317 8.67967 7.01317 8.61967L8.71317 10.3197C8.4865 11.033 9.0265 11.9997 9.99984 11.9997C10.9665 11.9997 11.5132 11.0397 11.2865 10.3197L13.6598 7.95301C14.3732 8.17301 15.3332 7.63301 15.3332 6.66634C15.3332 5.93301 14.7332 5.33301 13.9998 5.33301Z" fill="#2A7EC9"/>
<path d="M9.99984 6L10.6265 4.62L11.9998 4L10.6265 3.38L9.99984 2L9.3865 3.38L7.99984 4L9.3865 4.62L9.99984 6ZM2.33317 7.33333L2.6665 6L3.99984 5.66667L2.6665 5.33333L2.33317 4L1.99984 5.33333L0.666504 5.66667L1.99984 6L2.33317 7.33333Z" fill="#2A7EC9"/>
</svg>
