<svg width="647" height="113" viewBox="0 0 647 113" fill="none" xmlns="http://www.w3.org/2000/svg">
<path d="M137.644 67.3736V52.9053H151.325C155.848 52.9053 159.222 52.0149 161.447 50.2342C163.671 48.3793 164.784 45.3372 164.784 41.1081C164.784 37.1014 163.745 34.1336 161.669 32.2045C159.667 30.2012 156.59 29.1995 152.437 29.1995H137.644V14.7312H153.438C157.665 14.7312 161.595 15.2506 165.228 16.2894C168.862 17.2539 172.013 18.812 174.683 20.9637C177.426 23.1154 179.539 25.8236 181.022 29.0882C182.58 32.3529 183.358 36.2853 183.358 40.8855C183.358 46.747 182.023 51.6439 179.354 55.5763C176.759 59.5088 172.977 62.4766 168.009 64.4799C163.041 66.409 156.961 67.3736 149.768 67.3736H137.644ZM124.186 88.1856V14.7312H142.205V88.1856H124.186Z" fill="white"/>
<path d="M216.07 89.7438C210.508 89.7438 205.837 88.9647 202.055 87.4066C198.348 85.7743 195.345 83.5855 193.046 80.8402C190.747 78.0207 189.079 74.8303 188.041 71.2689C187.077 67.7075 186.595 63.9605 186.595 60.0281C186.595 55.7989 187.114 51.7552 188.152 47.897C189.264 44.0388 190.933 40.6258 193.157 37.6579C195.456 34.6159 198.385 32.2416 201.944 30.5351C205.577 28.7544 209.915 27.864 214.957 27.864C220 27.864 224.3 28.7544 227.86 30.5351C231.493 32.2416 234.385 34.653 236.535 37.7692C238.686 40.8855 240.057 44.484 240.651 48.5648C241.318 52.6456 241.244 57.0603 240.428 61.8088L197.829 62.4766V52.6827L226.636 52.1262L224.3 57.8022C224.745 54.3892 224.671 51.5326 224.078 49.2326C223.559 46.8583 222.558 45.0776 221.075 43.8904C219.592 42.6291 217.553 41.9984 214.957 41.9984C212.214 41.9984 210.026 42.7033 208.395 44.113C206.764 45.5227 205.615 47.526 204.947 50.1229C204.28 52.6456 203.946 55.6505 203.946 59.1378C203.946 65.1477 204.947 69.5253 206.949 72.2705C208.951 75.0158 212.029 76.3884 216.181 76.3884C217.961 76.3884 219.444 76.1658 220.63 75.7207C221.816 75.2755 222.78 74.6448 223.522 73.8287C224.263 72.9383 224.782 71.8995 225.079 70.7124C225.376 69.4511 225.487 68.0413 225.413 66.4832L241.874 67.3736C242.097 69.822 241.837 72.3447 241.095 74.9416C240.428 77.5385 239.131 79.9498 237.203 82.1757C235.275 84.4016 232.568 86.2194 229.083 87.6292C225.672 89.0389 221.334 89.7438 216.07 89.7438Z" fill="white"/>
<path d="M248.11 88.1856V29.4221H263.348V53.3504H264.237C264.682 47.5631 265.646 42.8146 267.129 39.1047C268.612 35.3207 270.725 32.5013 273.469 30.6464C276.213 28.7915 279.698 27.864 283.924 27.864C290.301 27.864 295.084 29.9786 298.272 34.2078C301.535 38.437 303.166 44.7437 303.166 53.1279V88.1856H285.148V55.465C285.148 51.4584 284.517 48.4535 283.257 46.4502C282.071 44.4469 280.143 43.4452 277.473 43.4452C275.249 43.4452 273.284 44.2243 271.578 45.7824C269.873 47.3405 268.538 49.8632 267.574 53.3504C266.61 56.8377 266.128 61.5121 266.128 67.3736V88.1856H248.11Z" fill="white"/>
<path d="M310.565 88.1856V29.4221H325.803V53.3504H326.693C327.138 47.5631 328.102 42.8146 329.585 39.1047C331.068 35.3207 333.181 32.5013 335.925 30.6464C338.668 28.7915 342.153 27.864 346.38 27.864C352.757 27.864 357.54 29.9786 360.728 34.2078C363.991 38.437 365.622 44.7437 365.622 53.1279V88.1856H347.604V55.465C347.604 51.4584 346.973 48.4535 345.713 46.4502C344.526 44.4469 342.598 43.4452 339.929 43.4452C337.704 43.4452 335.739 44.2243 334.034 45.7824C332.329 47.3405 330.994 49.8632 330.03 53.3504C329.066 56.8377 328.584 61.5121 328.584 67.3736V88.1856H310.565Z" fill="white"/>
<path d="M394.043 105.548C391.818 105.548 389.371 105.362 386.702 104.991C384.032 104.62 381.363 104.027 378.694 103.21C376.024 102.394 373.54 101.355 371.241 100.094L375.357 81.9532C378.026 84.4758 380.992 86.2565 384.255 87.2953C387.592 88.334 390.558 88.8534 393.153 88.8534C396.786 88.8534 399.826 88.1485 402.273 86.7388C404.795 85.2549 406.685 83.1403 407.946 80.395C409.207 77.5756 409.837 74.1625 409.837 70.1559V59.9168H408.836C408.687 65.1106 407.835 69.3769 406.278 72.7157C404.795 75.9803 402.755 78.3917 400.16 79.9498C397.565 81.508 394.562 82.287 391.151 82.287C386.924 82.287 383.402 81.2112 380.584 79.0595C377.841 76.9078 375.765 73.6803 374.356 69.3769C372.947 65.0735 372.243 59.6942 372.243 53.2392V29.4221H390.15V48.5648C390.15 54.8715 390.817 59.4716 392.152 62.3653C393.487 65.259 395.6 66.7058 398.492 66.7058C399.975 66.7058 401.272 66.3348 402.385 65.5928C403.571 64.7767 404.535 63.5896 405.277 62.0314C406.018 60.3991 406.574 58.3958 406.945 56.0215C407.316 53.573 407.501 50.7536 407.501 47.5631V29.4221H425.408V70.8237C425.408 74.8303 425.001 78.6143 424.185 82.1757C423.369 85.663 422.146 88.8163 420.514 91.6358C418.883 94.5294 416.807 97.015 414.286 99.0925C411.839 101.17 408.91 102.765 405.499 103.878C402.162 104.991 398.343 105.548 394.043 105.548Z" fill="white"/>
<path d="M446.882 67.3736V52.9053H460.563C465.086 52.9053 468.46 52.0149 470.684 50.2342C472.909 48.3793 474.021 45.3372 474.021 41.1081C474.021 37.1014 472.983 34.1336 470.907 32.2045C468.904 30.2012 465.827 29.1995 461.675 29.1995H446.882V14.7312H462.676C466.902 14.7312 470.832 15.2506 474.466 16.2894C478.099 17.2539 481.251 18.812 483.92 20.9637C486.663 23.1154 488.777 25.8236 490.26 29.0882C491.817 32.3529 492.595 36.2853 492.595 40.8855C492.595 46.747 491.261 51.6439 488.591 55.5763C485.996 59.5088 482.214 62.4766 477.246 64.4799C472.278 66.409 466.198 67.3736 459.005 67.3736H446.882ZM433.424 88.1856V14.7312H451.442V88.1856H433.424Z" fill="white"/>
<path d="M498.15 88.1856V29.4221H516.168V88.1856H498.15ZM507.048 25.1929C503.637 25.1929 501.005 24.4881 499.151 23.0783C497.371 21.5944 496.481 19.4798 496.481 16.7345C496.481 13.9151 497.371 11.8005 499.151 10.3907C501.005 8.90682 503.637 8.16486 507.048 8.16486C510.533 8.16486 513.165 8.90682 514.945 10.3907C516.799 11.8747 517.726 13.9893 517.726 16.7345C517.726 19.4056 516.799 21.4831 514.945 22.967C513.165 24.451 510.533 25.1929 507.048 25.1929Z" fill="white"/>
<path d="M524.218 88.1856V10.2795H542.237V88.1856H524.218Z" fill="white"/>
<path d="M577.648 89.7438C572.013 89.7438 567.008 88.6308 562.633 86.4049C558.258 84.1048 554.847 80.6918 552.4 76.1658C549.953 71.5657 548.73 65.8154 548.73 58.9152C548.73 51.7181 549.99 45.8566 552.511 41.3306C555.107 36.7305 558.592 33.3545 562.966 31.2028C567.416 28.9769 572.421 27.864 577.982 27.864C583.766 27.864 588.808 29.014 593.109 31.3141C597.484 33.54 600.857 36.9531 603.23 41.5532C605.677 46.0792 606.901 51.8294 606.901 58.8039C606.901 66.0009 605.603 71.8995 603.008 76.4997C600.487 81.0257 597.002 84.3645 592.552 86.5162C588.178 88.6679 583.21 89.7438 577.648 89.7438ZM578.093 76.4997C580.392 76.4997 582.32 75.869 583.877 74.6077C585.434 73.2722 586.62 71.3431 587.436 68.8204C588.252 66.2977 588.66 63.2928 588.66 59.8055C588.66 55.9473 588.215 52.7198 587.325 50.1229C586.435 47.4518 585.137 45.4114 583.432 44.0017C581.801 42.592 579.799 41.8871 577.426 41.8871C575.201 41.8871 573.31 42.5549 571.753 43.8904C570.196 45.1518 569.01 47.0438 568.194 49.5664C567.378 52.0891 566.971 55.1312 566.971 58.6926C566.971 64.3315 567.935 68.7091 569.862 71.8253C571.865 74.9416 574.608 76.4997 578.093 76.4997Z" fill="white"/>
<path d="M636.211 89.5212C629.315 89.5212 624.162 87.7776 620.751 84.2903C617.414 80.7289 615.746 75.2384 615.746 67.8187V43.4452H609.294V32.0932H609.628C614.226 31.4996 617.488 29.9786 619.416 27.5301C621.344 25.0074 622.53 21.2234 622.975 16.1781V15.9555H633.542V29.4221H647V43.8904H633.542V66.1493C633.542 68.9688 634.209 70.9721 635.544 72.1592C636.953 73.3464 638.658 73.9399 640.66 73.9399C641.698 73.9399 642.773 73.7915 643.886 73.4948C644.998 73.198 646.036 72.7899 647 72.2705V87.9631C644.701 88.6308 642.662 89.0389 640.883 89.1873C639.103 89.4099 637.546 89.5212 636.211 89.5212Z" fill="white"/>
<path d="M86.299 0.499072C88.2435 -1.00256 90.88 1.15737 89.7926 3.36113L52.2863 79.3703C51.8181 80.3191 50.7673 80.8304 49.7324 80.6129L1.84265 70.5519C-0.0925932 70.1453 -0.662407 67.6561 0.903028 66.4472L86.299 0.499072Z" fill="white"/>
<path d="M87.5155 29.7251C87.1283 27.4959 84.1062 27.0849 83.1383 29.1298L58.6055 80.9644C58.133 81.9628 58.4301 83.1562 59.3155 83.8162L97.8427 112.534C99.5225 113.786 101.869 112.342 101.51 110.277L87.5155 29.7251Z" fill="#98B0FF"/>
</svg>
