<svg width="16" height="16" viewBox="0 0 16 16" fill="none" xmlns="http://www.w3.org/2000/svg">
<path d="M1.99984 12.6663C1.63317 12.6663 1.31939 12.5359 1.0585 12.275C0.797615 12.0141 0.666948 11.7001 0.666504 11.333V4.66634C0.666504 4.29968 0.797171 3.9859 1.0585 3.72501C1.31984 3.46412 1.63362 3.33345 1.99984 3.33301H8.6665C9.03317 3.33301 9.34717 3.46368 9.6085 3.72501C9.86984 3.98634 10.0003 4.30012 9.99984 4.66634V11.333C9.99984 11.6997 9.86939 12.0137 9.6085 12.275C9.34762 12.5363 9.03362 12.6668 8.6665 12.6663H1.99984ZM11.9998 12.6663C11.8109 12.6663 11.6527 12.6023 11.5252 12.4743C11.3976 12.3463 11.3336 12.1881 11.3332 11.9997V3.99968C11.3332 3.81079 11.3972 3.65257 11.5252 3.52501C11.6532 3.39745 11.8114 3.33345 11.9998 3.33301C12.1883 3.33257 12.3467 3.39657 12.4752 3.52501C12.6036 3.65345 12.6674 3.81168 12.6665 3.99968V11.9997C12.6665 12.1886 12.6025 12.347 12.4745 12.475C12.3465 12.603 12.1883 12.6668 11.9998 12.6663ZM14.6665 12.6663C14.4776 12.6663 14.3194 12.6023 14.1918 12.4743C14.0643 12.3463 14.0003 12.1881 13.9998 11.9997V3.99968C13.9998 3.81079 14.0638 3.65257 14.1918 3.52501C14.3198 3.39745 14.4781 3.33345 14.6665 3.33301C14.8549 3.33257 15.0134 3.39657 15.1418 3.52501C15.2703 3.65345 15.3341 3.81168 15.3332 3.99968V11.9997C15.3332 12.1886 15.2692 12.347 15.1412 12.475C15.0132 12.603 14.8549 12.6668 14.6665 12.6663Z" fill="#2A7EC9"/>
</svg>
