<svg width="16" height="16" viewBox="0 0 16 16" fill="none" xmlns="http://www.w3.org/2000/svg">
<g clip-path="url(#clip0_69_1116)">
<path d="M13.448 4.50042H12.2073L9.16332 7.54309C9.26816 7.81028 9.2778 8.10543 9.19062 8.37889C9.10344 8.65236 8.92476 8.88747 8.68462 9.04468C8.44448 9.2019 8.15753 9.27163 7.87202 9.24216C7.58651 9.21268 7.31986 9.0858 7.1169 8.88284C6.91394 8.67988 6.78706 8.41323 6.75758 8.12772C6.72811 7.84221 6.79784 7.55526 6.95506 7.31512C7.11227 7.07498 7.34738 6.8963 7.62085 6.80912C7.89431 6.72194 8.18946 6.73158 8.45665 6.83642L11.5 3.79309V2.55242C11.5 2.38641 11.566 2.2272 11.6833 2.10975L12.8367 0.956421C12.858 0.934939 12.8848 0.919679 12.9142 0.912279C12.9435 0.904879 12.9743 0.90562 13.0033 0.914421C13.0627 0.931754 13.1067 0.981087 13.1187 1.04175L13.4253 2.57575L14.9587 2.88242C15.0187 2.89442 15.068 2.93842 15.0853 2.99775C15.0941 3.02658 15.0949 3.05723 15.0876 3.08646C15.0803 3.11569 15.0652 3.1424 15.044 3.16375L13.89 4.31709C13.7727 4.43426 13.6138 4.50018 13.448 4.50042Z" fill="#2A7EC9"/>
<path d="M1.75 8C1.75 9.65761 2.40848 11.2473 3.58058 12.4194C4.75269 13.5915 6.3424 14.25 8 14.25C8.82076 14.25 9.63349 14.0883 10.3918 13.7743C11.1501 13.4602 11.8391 12.9998 12.4194 12.4194C12.9998 11.8391 13.4602 11.1501 13.7742 10.3918C14.0883 9.63349 14.25 8.82077 14.25 8C14.25 7.40134 14.166 6.82267 14.0093 6.27534C13.9782 6.14966 13.997 6.01681 14.0618 5.90473C14.1267 5.79266 14.2324 5.7101 14.3569 5.67443C14.4814 5.63875 14.6148 5.65275 14.7292 5.71348C14.8435 5.7742 14.9298 5.87691 14.97 6C15.1527 6.636 15.25 7.30667 15.25 8C15.25 12.004 12.004 15.25 8 15.25C3.996 15.25 0.75 12.004 0.75 8C0.75 3.996 3.996 0.750004 8 0.750004C8.67667 0.749337 9.34933 0.843337 10 1.02934C10.0634 1.04713 10.1227 1.07729 10.1745 1.11808C10.2262 1.15887 10.2694 1.20949 10.3015 1.26702C10.3336 1.32455 10.3541 1.38787 10.3616 1.45332C10.3692 1.51877 10.3638 1.58508 10.3456 1.64842C10.3275 1.71177 10.297 1.7709 10.2559 1.82242C10.2149 1.87395 10.164 1.91684 10.1063 1.94865C10.0486 1.98045 9.98517 2.00054 9.91968 2.00775C9.85419 2.01496 9.78791 2.00916 9.72467 1.99067C9.16378 1.83057 8.58329 1.74957 8 1.75C6.3424 1.75 4.75269 2.40848 3.58058 3.58059C2.40848 4.75269 1.75 6.3424 1.75 8Z" fill="#2A7EC9"/>
<path d="M4.75015 7.99986C4.75201 8.44141 4.84385 8.87795 5.02005 9.28282C5.19625 9.68769 5.45313 10.0524 5.77499 10.3547C6.09684 10.657 6.47694 10.8905 6.89205 11.041C7.30717 11.1915 7.74861 11.2558 8.1894 11.2299C8.6302 11.2041 9.06111 11.0888 9.45583 10.8908C9.85055 10.6929 10.2008 10.4167 10.4852 10.0789C10.7695 9.74109 10.9821 9.34889 11.1098 8.92622C11.2376 8.50355 11.2778 8.05928 11.2282 7.62053C11.2142 7.53167 11.2245 7.44068 11.258 7.3572C11.2915 7.27371 11.3469 7.20085 11.4185 7.14632C11.49 7.09179 11.575 7.05763 11.6643 7.04746C11.7537 7.03728 11.8442 7.05147 11.9262 7.08853C12.0935 7.16319 12.2062 7.32253 12.2208 7.50519C12.3243 8.38202 12.1521 9.26932 11.7281 10.0438C11.304 10.8182 10.6493 11.4413 9.8548 11.8264C9.06031 12.2116 8.16557 12.3396 7.29495 12.1928C6.42432 12.046 5.62106 11.6316 4.99682 11.0072C4.37275 10.3835 3.95824 9.58102 3.81077 8.71111C3.6633 7.8412 3.79019 6.94697 4.17384 6.15242C4.55748 5.35788 5.17887 4.70241 5.95181 4.27692C6.72476 3.85143 7.61095 3.67701 8.48749 3.77786C8.55375 3.78401 8.61812 3.80332 8.67682 3.83467C8.73552 3.86602 8.78738 3.90877 8.82934 3.96042C8.87131 4.01207 8.90254 4.07157 8.92121 4.13545C8.93988 4.19932 8.94561 4.26628 8.93807 4.3324C8.93053 4.39852 8.90986 4.46247 8.87728 4.5205C8.8447 4.57853 8.80087 4.62947 8.74835 4.67033C8.69583 4.7112 8.63567 4.74117 8.57142 4.75849C8.50716 4.77581 8.4401 4.78013 8.37415 4.77119C7.91884 4.71855 7.45754 4.7628 7.02053 4.90102C6.58352 5.03924 6.18068 5.26832 5.83845 5.57321C5.49622 5.87811 5.22234 6.25193 5.03478 6.67015C4.84722 7.08836 4.75022 7.54151 4.75015 7.99986Z" fill="#2A7EC9"/>
</g>
<defs>
<clipPath id="clip0_69_1116">
<rect width="16" height="16" fill="white"/>
</clipPath>
</defs>
</svg>
